<mxfile host="65bd71144e">
    <diagram id="prtHgNgQTEPvFCAcTncT" name="Page-1">
        <mxGraphModel dx="2447" dy="1355" grid="1" gridSize="10" guides="1" tooltips="1" connect="1" arrows="1" fold="1" page="1" pageScale="1" pageWidth="827" pageHeight="1169" math="0" shadow="0">
            <root>
                <mxCell id="0"/>
                <mxCell id="1" parent="0"/>
                <mxCell id="ufnlYQHxm2TLW9yD92qH-64" style="edgeStyle=orthogonalEdgeStyle;rounded=0;orthogonalLoop=1;jettySize=auto;html=1;exitX=1;exitY=0.5;exitDx=0;exitDy=0;entryX=0;entryY=0.5;entryDx=0;entryDy=0;" parent="1" source="ufnlYQHxm2TLW9yD92qH-1" target="ufnlYQHxm2TLW9yD92qH-2" edge="1">
                    <mxGeometry relative="1" as="geometry"/>
                </mxCell>
                <mxCell id="ufnlYQHxm2TLW9yD92qH-65" style="edgeStyle=orthogonalEdgeStyle;rounded=0;orthogonalLoop=1;jettySize=auto;html=1;exitX=1;exitY=0.5;exitDx=0;exitDy=0;entryX=0;entryY=0.5;entryDx=0;entryDy=0;" parent="1" source="ufnlYQHxm2TLW9yD92qH-1" target="ufnlYQHxm2TLW9yD92qH-22" edge="1">
                    <mxGeometry relative="1" as="geometry"/>
                </mxCell>
                <mxCell id="ufnlYQHxm2TLW9yD92qH-66" style="edgeStyle=orthogonalEdgeStyle;rounded=0;orthogonalLoop=1;jettySize=auto;html=1;exitX=1;exitY=0.5;exitDx=0;exitDy=0;entryX=0;entryY=0.5;entryDx=0;entryDy=0;" parent="1" source="ufnlYQHxm2TLW9yD92qH-1" target="ufnlYQHxm2TLW9yD92qH-43" edge="1">
                    <mxGeometry relative="1" as="geometry"/>
                </mxCell>
                <mxCell id="ufnlYQHxm2TLW9yD92qH-67" style="edgeStyle=orthogonalEdgeStyle;rounded=0;orthogonalLoop=1;jettySize=auto;html=1;exitX=1;exitY=0.5;exitDx=0;exitDy=0;entryX=0;entryY=0.5;entryDx=0;entryDy=0;" parent="1" source="ufnlYQHxm2TLW9yD92qH-1" target="ufnlYQHxm2TLW9yD92qH-55" edge="1">
                    <mxGeometry relative="1" as="geometry"/>
                </mxCell>
                <mxCell id="ufnlYQHxm2TLW9yD92qH-1" value="the recent advances&lt;div&gt;in LLM serving systems&lt;/div&gt;" style="rounded=0;whiteSpace=wrap;html=1;" parent="1" vertex="1">
                    <mxGeometry x="-330" y="1130" width="160" height="80" as="geometry"/>
                </mxCell>
                <mxCell id="ufnlYQHxm2TLW9yD92qH-37" style="edgeStyle=orthogonalEdgeStyle;rounded=0;orthogonalLoop=1;jettySize=auto;html=1;exitX=1;exitY=0.5;exitDx=0;exitDy=0;entryX=0;entryY=0.5;entryDx=0;entryDy=0;" parent="1" source="ufnlYQHxm2TLW9yD92qH-2" target="ufnlYQHxm2TLW9yD92qH-3" edge="1">
                    <mxGeometry relative="1" as="geometry"/>
                </mxCell>
                <mxCell id="ufnlYQHxm2TLW9yD92qH-38" style="edgeStyle=orthogonalEdgeStyle;rounded=0;orthogonalLoop=1;jettySize=auto;html=1;exitX=1;exitY=0.5;exitDx=0;exitDy=0;" parent="1" source="ufnlYQHxm2TLW9yD92qH-2" target="ufnlYQHxm2TLW9yD92qH-8" edge="1">
                    <mxGeometry relative="1" as="geometry"/>
                </mxCell>
                <mxCell id="ufnlYQHxm2TLW9yD92qH-39" style="edgeStyle=orthogonalEdgeStyle;rounded=0;orthogonalLoop=1;jettySize=auto;html=1;exitX=1;exitY=0.5;exitDx=0;exitDy=0;entryX=0;entryY=0.5;entryDx=0;entryDy=0;" parent="1" source="ufnlYQHxm2TLW9yD92qH-2" target="ufnlYQHxm2TLW9yD92qH-14" edge="1">
                    <mxGeometry relative="1" as="geometry"/>
                </mxCell>
                <mxCell id="ufnlYQHxm2TLW9yD92qH-2" value="memory management&lt;div&gt;and&lt;/div&gt;&lt;div&gt;caching&lt;/div&gt;" style="rounded=0;whiteSpace=wrap;html=1;" parent="1" vertex="1">
                    <mxGeometry x="80" y="580" width="160" height="80" as="geometry"/>
                </mxCell>
                <mxCell id="ufnlYQHxm2TLW9yD92qH-77" style="edgeStyle=orthogonalEdgeStyle;rounded=0;orthogonalLoop=1;jettySize=auto;html=1;exitX=1;exitY=0.5;exitDx=0;exitDy=0;entryX=0;entryY=0.5;entryDx=0;entryDy=0;" parent="1" source="ufnlYQHxm2TLW9yD92qH-3" target="ufnlYQHxm2TLW9yD92qH-4" edge="1">
                    <mxGeometry relative="1" as="geometry"/>
                </mxCell>
                <mxCell id="ufnlYQHxm2TLW9yD92qH-3" value="Efficient Management of KV Cache" style="rounded=0;whiteSpace=wrap;html=1;" parent="1" vertex="1">
                    <mxGeometry x="440" y="470" width="160" height="80" as="geometry"/>
                </mxCell>
                <mxCell id="ufnlYQHxm2TLW9yD92qH-4" value="PagedAttention" style="rounded=0;whiteSpace=wrap;html=1;" parent="1" vertex="1">
                    <mxGeometry x="747" y="480" width="140" height="60" as="geometry"/>
                </mxCell>
                <mxCell id="ufnlYQHxm2TLW9yD92qH-5" value="vAttention" style="rounded=0;whiteSpace=wrap;html=1;" parent="1" vertex="1">
                    <mxGeometry x="910" y="480" width="140" height="60" as="geometry"/>
                </mxCell>
                <mxCell id="ufnlYQHxm2TLW9yD92qH-6" value="Prompt Cache" style="rounded=0;whiteSpace=wrap;html=1;" parent="1" vertex="1">
                    <mxGeometry x="1080" y="480" width="140" height="60" as="geometry"/>
                </mxCell>
                <mxCell id="ufnlYQHxm2TLW9yD92qH-7" value="AttentionStore" style="rounded=0;whiteSpace=wrap;html=1;" parent="1" vertex="1">
                    <mxGeometry x="1250" y="480" width="140" height="60" as="geometry"/>
                </mxCell>
                <mxCell id="ufnlYQHxm2TLW9yD92qH-78" style="edgeStyle=orthogonalEdgeStyle;rounded=0;orthogonalLoop=1;jettySize=auto;html=1;exitX=1;exitY=0.5;exitDx=0;exitDy=0;entryX=0;entryY=0.5;entryDx=0;entryDy=0;" parent="1" source="ufnlYQHxm2TLW9yD92qH-8" target="ufnlYQHxm2TLW9yD92qH-9" edge="1">
                    <mxGeometry relative="1" as="geometry"/>
                </mxCell>
                <mxCell id="ufnlYQHxm2TLW9yD92qH-8" value="Support for Long-Context Applications" style="rounded=0;whiteSpace=wrap;html=1;" parent="1" vertex="1">
                    <mxGeometry x="440" y="580" width="160" height="80" as="geometry"/>
                </mxCell>
                <mxCell id="ufnlYQHxm2TLW9yD92qH-9" value="Ring attention" style="rounded=0;whiteSpace=wrap;html=1;" parent="1" vertex="1">
                    <mxGeometry x="747" y="590" width="140" height="60" as="geometry"/>
                </mxCell>
                <mxCell id="ufnlYQHxm2TLW9yD92qH-10" value="Infinite-LLM" style="rounded=0;whiteSpace=wrap;html=1;" parent="1" vertex="1">
                    <mxGeometry x="910" y="590" width="140" height="60" as="geometry"/>
                </mxCell>
                <mxCell id="ufnlYQHxm2TLW9yD92qH-11" value="MemServe" style="rounded=0;whiteSpace=wrap;html=1;" parent="1" vertex="1">
                    <mxGeometry x="1080" y="590" width="140" height="60" as="geometry"/>
                </mxCell>
                <mxCell id="ufnlYQHxm2TLW9yD92qH-12" value="InfiniGen" style="rounded=0;whiteSpace=wrap;html=1;" parent="1" vertex="1">
                    <mxGeometry x="1250" y="590" width="140" height="60" as="geometry"/>
                </mxCell>
                <mxCell id="ufnlYQHxm2TLW9yD92qH-13" value="LoongServe" style="rounded=0;whiteSpace=wrap;html=1;" parent="1" vertex="1">
                    <mxGeometry x="1420" y="590" width="140" height="60" as="geometry"/>
                </mxCell>
                <mxCell id="ufnlYQHxm2TLW9yD92qH-79" style="edgeStyle=orthogonalEdgeStyle;rounded=0;orthogonalLoop=1;jettySize=auto;html=1;exitX=1;exitY=0.5;exitDx=0;exitDy=0;entryX=0;entryY=0.5;entryDx=0;entryDy=0;" parent="1" source="ufnlYQHxm2TLW9yD92qH-14" target="ufnlYQHxm2TLW9yD92qH-18" edge="1">
                    <mxGeometry relative="1" as="geometry"/>
                </mxCell>
                <mxCell id="ufnlYQHxm2TLW9yD92qH-14" value="Compression of KV Cache" style="rounded=0;whiteSpace=wrap;html=1;" parent="1" vertex="1">
                    <mxGeometry x="440" y="700" width="160" height="80" as="geometry"/>
                </mxCell>
                <mxCell id="ufnlYQHxm2TLW9yD92qH-18" value="FlexGen" style="rounded=0;whiteSpace=wrap;html=1;" parent="1" vertex="1">
                    <mxGeometry x="747" y="710" width="140" height="60" as="geometry"/>
                </mxCell>
                <mxCell id="ufnlYQHxm2TLW9yD92qH-19" value="KIVI" style="rounded=0;whiteSpace=wrap;html=1;" parent="1" vertex="1">
                    <mxGeometry x="910" y="710" width="140" height="60" as="geometry"/>
                </mxCell>
                <mxCell id="ufnlYQHxm2TLW9yD92qH-20" value="Gear" style="rounded=0;whiteSpace=wrap;html=1;" parent="1" vertex="1">
                    <mxGeometry x="1080" y="710" width="140" height="60" as="geometry"/>
                </mxCell>
                <mxCell id="ufnlYQHxm2TLW9yD92qH-21" value="MiniCache" style="rounded=0;whiteSpace=wrap;html=1;" parent="1" vertex="1">
                    <mxGeometry x="1250" y="710" width="140" height="60" as="geometry"/>
                </mxCell>
                <mxCell id="ufnlYQHxm2TLW9yD92qH-40" style="edgeStyle=orthogonalEdgeStyle;rounded=0;orthogonalLoop=1;jettySize=auto;html=1;exitX=1;exitY=0.5;exitDx=0;exitDy=0;entryX=0;entryY=0.5;entryDx=0;entryDy=0;" parent="1" source="ufnlYQHxm2TLW9yD92qH-22" target="ufnlYQHxm2TLW9yD92qH-23" edge="1">
                    <mxGeometry relative="1" as="geometry"/>
                </mxCell>
                <mxCell id="ufnlYQHxm2TLW9yD92qH-41" style="edgeStyle=orthogonalEdgeStyle;rounded=0;orthogonalLoop=1;jettySize=auto;html=1;exitX=1;exitY=0.5;exitDx=0;exitDy=0;" parent="1" source="ufnlYQHxm2TLW9yD92qH-22" target="ufnlYQHxm2TLW9yD92qH-27" edge="1">
                    <mxGeometry relative="1" as="geometry"/>
                </mxCell>
                <mxCell id="ufnlYQHxm2TLW9yD92qH-42" style="edgeStyle=orthogonalEdgeStyle;rounded=0;orthogonalLoop=1;jettySize=auto;html=1;exitX=1;exitY=0.5;exitDx=0;exitDy=0;entryX=0;entryY=0.5;entryDx=0;entryDy=0;" parent="1" source="ufnlYQHxm2TLW9yD92qH-22" target="ufnlYQHxm2TLW9yD92qH-31" edge="1">
                    <mxGeometry relative="1" as="geometry"/>
                </mxCell>
                <mxCell id="ufnlYQHxm2TLW9yD92qH-22" value="Computation Task Scheduling" style="rounded=0;whiteSpace=wrap;html=1;" parent="1" vertex="1">
                    <mxGeometry x="80" y="960" width="160" height="80" as="geometry"/>
                </mxCell>
                <mxCell id="ufnlYQHxm2TLW9yD92qH-80" style="edgeStyle=orthogonalEdgeStyle;rounded=0;orthogonalLoop=1;jettySize=auto;html=1;exitX=1;exitY=0.5;exitDx=0;exitDy=0;entryX=0;entryY=0.5;entryDx=0;entryDy=0;" parent="1" source="ufnlYQHxm2TLW9yD92qH-23" target="ufnlYQHxm2TLW9yD92qH-24" edge="1">
                    <mxGeometry relative="1" as="geometry"/>
                </mxCell>
                <mxCell id="ufnlYQHxm2TLW9yD92qH-23" value="Request Batching" style="rounded=0;whiteSpace=wrap;html=1;" parent="1" vertex="1">
                    <mxGeometry x="440" y="850" width="160" height="80" as="geometry"/>
                </mxCell>
                <mxCell id="ufnlYQHxm2TLW9yD92qH-24" value="Orca" style="rounded=0;whiteSpace=wrap;html=1;" parent="1" vertex="1">
                    <mxGeometry x="747" y="860" width="140" height="60" as="geometry"/>
                </mxCell>
                <mxCell id="ufnlYQHxm2TLW9yD92qH-25" value="vllm" style="rounded=0;whiteSpace=wrap;html=1;" parent="1" vertex="1">
                    <mxGeometry x="910" y="860" width="140" height="60" as="geometry"/>
                </mxCell>
                <mxCell id="ufnlYQHxm2TLW9yD92qH-26" value="Sarathi-Serve" style="rounded=0;whiteSpace=wrap;html=1;" parent="1" vertex="1">
                    <mxGeometry x="1080" y="860" width="140" height="60" as="geometry"/>
                </mxCell>
                <mxCell id="ufnlYQHxm2TLW9yD92qH-81" style="edgeStyle=orthogonalEdgeStyle;rounded=0;orthogonalLoop=1;jettySize=auto;html=1;exitX=1;exitY=0.5;exitDx=0;exitDy=0;" parent="1" source="ufnlYQHxm2TLW9yD92qH-27" target="ufnlYQHxm2TLW9yD92qH-28" edge="1">
                    <mxGeometry relative="1" as="geometry"/>
                </mxCell>
                <mxCell id="ufnlYQHxm2TLW9yD92qH-27" value="Disaggregated Inference" style="rounded=0;whiteSpace=wrap;html=1;" parent="1" vertex="1">
                    <mxGeometry x="440" y="960" width="160" height="80" as="geometry"/>
                </mxCell>
                <mxCell id="ufnlYQHxm2TLW9yD92qH-28" value="Tetriinfer" style="rounded=0;whiteSpace=wrap;html=1;" parent="1" vertex="1">
                    <mxGeometry x="747" y="970" width="140" height="60" as="geometry"/>
                </mxCell>
                <mxCell id="ufnlYQHxm2TLW9yD92qH-29" value="Splitwise" style="rounded=0;whiteSpace=wrap;html=1;" parent="1" vertex="1">
                    <mxGeometry x="910" y="970" width="140" height="60" as="geometry"/>
                </mxCell>
                <mxCell id="ufnlYQHxm2TLW9yD92qH-30" value="DistServe" style="rounded=0;whiteSpace=wrap;html=1;" parent="1" vertex="1">
                    <mxGeometry x="1080" y="970" width="140" height="60" as="geometry"/>
                </mxCell>
                <mxCell id="ufnlYQHxm2TLW9yD92qH-35" style="edgeStyle=orthogonalEdgeStyle;rounded=0;orthogonalLoop=1;jettySize=auto;html=1;entryX=0;entryY=0.5;entryDx=0;entryDy=0;" parent="1" source="ufnlYQHxm2TLW9yD92qH-31" target="ufnlYQHxm2TLW9yD92qH-32" edge="1">
                    <mxGeometry relative="1" as="geometry"/>
                </mxCell>
                <mxCell id="ufnlYQHxm2TLW9yD92qH-36" value="TP or PP" style="edgeLabel;html=1;align=center;verticalAlign=middle;resizable=0;points=[];" parent="ufnlYQHxm2TLW9yD92qH-35" vertex="1" connectable="0">
                    <mxGeometry x="-0.0646" y="2" relative="1" as="geometry">
                        <mxPoint as="offset"/>
                    </mxGeometry>
                </mxCell>
                <mxCell id="ufnlYQHxm2TLW9yD92qH-31" value="Model Parallelism" style="rounded=0;whiteSpace=wrap;html=1;" parent="1" vertex="1">
                    <mxGeometry x="440" y="1070" width="160" height="80" as="geometry"/>
                </mxCell>
                <mxCell id="ufnlYQHxm2TLW9yD92qH-32" value="HeteGen" style="rounded=0;whiteSpace=wrap;html=1;" parent="1" vertex="1">
                    <mxGeometry x="747" y="1080" width="140" height="60" as="geometry"/>
                </mxCell>
                <mxCell id="ufnlYQHxm2TLW9yD92qH-33" value="ExeGPT" style="rounded=0;whiteSpace=wrap;html=1;" parent="1" vertex="1">
                    <mxGeometry x="910" y="1080" width="140" height="60" as="geometry"/>
                </mxCell>
                <mxCell id="ufnlYQHxm2TLW9yD92qH-34" value="Helix" style="rounded=0;whiteSpace=wrap;html=1;" parent="1" vertex="1">
                    <mxGeometry x="1080" y="1080" width="140" height="60" as="geometry"/>
                </mxCell>
                <mxCell id="ufnlYQHxm2TLW9yD92qH-59" style="edgeStyle=orthogonalEdgeStyle;rounded=0;orthogonalLoop=1;jettySize=auto;html=1;exitX=1;exitY=0.5;exitDx=0;exitDy=0;" parent="1" source="ufnlYQHxm2TLW9yD92qH-43" target="ufnlYQHxm2TLW9yD92qH-44" edge="1">
                    <mxGeometry relative="1" as="geometry"/>
                </mxCell>
                <mxCell id="ufnlYQHxm2TLW9yD92qH-60" style="edgeStyle=orthogonalEdgeStyle;rounded=0;orthogonalLoop=1;jettySize=auto;html=1;exitX=1;exitY=0.5;exitDx=0;exitDy=0;entryX=0;entryY=0.5;entryDx=0;entryDy=0;" parent="1" source="ufnlYQHxm2TLW9yD92qH-43" target="ufnlYQHxm2TLW9yD92qH-48" edge="1">
                    <mxGeometry relative="1" as="geometry"/>
                </mxCell>
                <mxCell id="ufnlYQHxm2TLW9yD92qH-43" value="LLMs In Cloud" style="rounded=0;whiteSpace=wrap;html=1;" parent="1" vertex="1">
                    <mxGeometry x="80" y="1275" width="160" height="80" as="geometry"/>
                </mxCell>
                <mxCell id="ufnlYQHxm2TLW9yD92qH-82" style="edgeStyle=orthogonalEdgeStyle;rounded=0;orthogonalLoop=1;jettySize=auto;html=1;exitX=1;exitY=0.5;exitDx=0;exitDy=0;" parent="1" source="ufnlYQHxm2TLW9yD92qH-44" target="ufnlYQHxm2TLW9yD92qH-45" edge="1">
                    <mxGeometry relative="1" as="geometry"/>
                </mxCell>
                <mxCell id="ufnlYQHxm2TLW9yD92qH-44" value="Cloud Deployment Cost" style="rounded=0;whiteSpace=wrap;html=1;" parent="1" vertex="1">
                    <mxGeometry x="440" y="1220" width="160" height="80" as="geometry"/>
                </mxCell>
                <mxCell id="ufnlYQHxm2TLW9yD92qH-45" value="ServerlessLLM" style="rounded=0;whiteSpace=wrap;html=1;" parent="1" vertex="1">
                    <mxGeometry x="747" y="1230" width="140" height="60" as="geometry"/>
                </mxCell>
                <mxCell id="ufnlYQHxm2TLW9yD92qH-46" value="Melange" style="rounded=0;whiteSpace=wrap;html=1;" parent="1" vertex="1">
                    <mxGeometry x="910" y="1230" width="140" height="60" as="geometry"/>
                </mxCell>
                <mxCell id="ufnlYQHxm2TLW9yD92qH-47" value="Llumnix" style="rounded=0;whiteSpace=wrap;html=1;" parent="1" vertex="1">
                    <mxGeometry x="1080" y="1230" width="140" height="60" as="geometry"/>
                </mxCell>
                <mxCell id="ufnlYQHxm2TLW9yD92qH-52" style="edgeStyle=orthogonalEdgeStyle;rounded=0;orthogonalLoop=1;jettySize=auto;html=1;exitX=1;exitY=0.5;exitDx=0;exitDy=0;entryX=0;entryY=0.5;entryDx=0;entryDy=0;" parent="1" source="ufnlYQHxm2TLW9yD92qH-48" target="ufnlYQHxm2TLW9yD92qH-49" edge="1">
                    <mxGeometry relative="1" as="geometry"/>
                </mxCell>
                <mxCell id="ufnlYQHxm2TLW9yD92qH-53" value="Power Resource" style="edgeLabel;html=1;align=center;verticalAlign=middle;resizable=0;points=[];" parent="ufnlYQHxm2TLW9yD92qH-52" vertex="1" connectable="0">
                    <mxGeometry x="-0.0459" y="-1" relative="1" as="geometry">
                        <mxPoint as="offset"/>
                    </mxGeometry>
                </mxCell>
                <mxCell id="ufnlYQHxm2TLW9yD92qH-48" value="Cloud Efficiency" style="rounded=0;whiteSpace=wrap;html=1;" parent="1" vertex="1">
                    <mxGeometry x="440" y="1330" width="160" height="80" as="geometry"/>
                </mxCell>
                <mxCell id="ufnlYQHxm2TLW9yD92qH-49" value="POLCA" style="rounded=0;whiteSpace=wrap;html=1;" parent="1" vertex="1">
                    <mxGeometry x="747" y="1340" width="140" height="60" as="geometry"/>
                </mxCell>
                <mxCell id="ufnlYQHxm2TLW9yD92qH-50" value="PerLLM" style="rounded=0;whiteSpace=wrap;html=1;" parent="1" vertex="1">
                    <mxGeometry x="910" y="1340" width="140" height="60" as="geometry"/>
                </mxCell>
                <mxCell id="ufnlYQHxm2TLW9yD92qH-54" value="Andes" style="rounded=0;whiteSpace=wrap;html=1;" parent="1" vertex="1">
                    <mxGeometry x="1080" y="1340" width="140" height="60" as="geometry"/>
                </mxCell>
                <mxCell id="ufnlYQHxm2TLW9yD92qH-61" style="edgeStyle=orthogonalEdgeStyle;rounded=0;orthogonalLoop=1;jettySize=auto;html=1;exitX=1;exitY=0.5;exitDx=0;exitDy=0;entryX=0;entryY=0.5;entryDx=0;entryDy=0;" parent="1" source="ufnlYQHxm2TLW9yD92qH-55" target="ufnlYQHxm2TLW9yD92qH-56" edge="1">
                    <mxGeometry relative="1" as="geometry"/>
                </mxCell>
                <mxCell id="ufnlYQHxm2TLW9yD92qH-62" style="edgeStyle=orthogonalEdgeStyle;rounded=0;orthogonalLoop=1;jettySize=auto;html=1;exitX=1;exitY=0.5;exitDx=0;exitDy=0;entryX=0;entryY=0.5;entryDx=0;entryDy=0;" parent="1" source="ufnlYQHxm2TLW9yD92qH-55" target="ufnlYQHxm2TLW9yD92qH-57" edge="1">
                    <mxGeometry relative="1" as="geometry"/>
                </mxCell>
                <mxCell id="ufnlYQHxm2TLW9yD92qH-63" style="edgeStyle=orthogonalEdgeStyle;rounded=0;orthogonalLoop=1;jettySize=auto;html=1;exitX=1;exitY=0.5;exitDx=0;exitDy=0;entryX=0;entryY=0.5;entryDx=0;entryDy=0;" parent="1" source="ufnlYQHxm2TLW9yD92qH-55" target="ufnlYQHxm2TLW9yD92qH-58" edge="1">
                    <mxGeometry relative="1" as="geometry"/>
                </mxCell>
                <mxCell id="ufnlYQHxm2TLW9yD92qH-55" value="Emerging Research Fields" style="rounded=0;whiteSpace=wrap;html=1;" parent="1" vertex="1">
                    <mxGeometry x="80" y="1590" width="160" height="80" as="geometry"/>
                </mxCell>
                <mxCell id="ufnlYQHxm2TLW9yD92qH-56" value="RAG" style="rounded=0;whiteSpace=wrap;html=1;" parent="1" vertex="1">
                    <mxGeometry x="440" y="1480" width="160" height="80" as="geometry"/>
                </mxCell>
                <mxCell id="ufnlYQHxm2TLW9yD92qH-57" value="MoE" style="rounded=0;whiteSpace=wrap;html=1;" parent="1" vertex="1">
                    <mxGeometry x="440" y="1590" width="160" height="80" as="geometry"/>
                </mxCell>
                <mxCell id="ufnlYQHxm2TLW9yD92qH-58" value="Miscellaneous Fields" style="rounded=0;whiteSpace=wrap;html=1;" parent="1" vertex="1">
                    <mxGeometry x="440" y="1700" width="160" height="80" as="geometry"/>
                </mxCell>
                <mxCell id="ufnlYQHxm2TLW9yD92qH-68" value="The following is the corresponding papers" style="text;whiteSpace=wrap;" parent="1" vertex="1">
                    <mxGeometry x="950" y="380" width="250" height="40" as="geometry"/>
                </mxCell>
                <mxCell id="ufnlYQHxm2TLW9yD92qH-69" value="the first category" style="text;html=1;align=center;verticalAlign=middle;resizable=0;points=[];autosize=1;strokeColor=none;fillColor=none;" parent="1" vertex="1">
                    <mxGeometry x="105" y="490" width="110" height="30" as="geometry"/>
                </mxCell>
                <mxCell id="ufnlYQHxm2TLW9yD92qH-70" value="three aspects" style="text;html=1;align=center;verticalAlign=middle;resizable=0;points=[];autosize=1;strokeColor=none;fillColor=none;" parent="1" vertex="1">
                    <mxGeometry x="460" y="388" width="100" height="30" as="geometry"/>
                </mxCell>
                <mxCell id="ufnlYQHxm2TLW9yD92qH-72" value="non-contiguous memory blocks" style="whiteSpace=wrap;html=1;" parent="1" vertex="1">
                    <mxGeometry x="762" y="440" width="110" height="30" as="geometry"/>
                </mxCell>
                <mxCell id="ufnlYQHxm2TLW9yD92qH-73" value="contiguous virtual memory" style="whiteSpace=wrap;html=1;" parent="1" vertex="1">
                    <mxGeometry x="925" y="440" width="110" height="30" as="geometry"/>
                </mxCell>
                <mxCell id="ufnlYQHxm2TLW9yD92qH-74" value="specific prompt schema" style="whiteSpace=wrap;html=1;" parent="1" vertex="1">
                    <mxGeometry x="1095" y="440" width="110" height="30" as="geometry"/>
                </mxCell>
                <mxCell id="ufnlYQHxm2TLW9yD92qH-75" value="multi-turn conversations" style="whiteSpace=wrap;html=1;" parent="1" vertex="1">
                    <mxGeometry x="1265" y="440" width="110" height="30" as="geometry"/>
                </mxCell>
                <mxCell id="ufnlYQHxm2TLW9yD92qH-76" value="&lt;div&gt;&lt;span style=&quot;background-color: initial;&quot;&gt;This paper summarizes some existing research on the LLM inference systems,&lt;/span&gt;&lt;/div&gt;&lt;div&gt;&lt;span style=&quot;background-color: initial;&quot;&gt;Through this paper, I learned more about the current development direction of LLM inference.&lt;/span&gt;&lt;br&gt;&lt;/div&gt;" style="text;html=1;align=center;verticalAlign=middle;resizable=0;points=[];autosize=1;strokeColor=none;fillColor=none;" parent="1" vertex="1">
                    <mxGeometry x="320" y="1890" width="520" height="40" as="geometry"/>
                </mxCell>
            </root>
        </mxGraphModel>
    </diagram>
    <diagram id="zrZWEm2zJMW_05lD-iRk" name="第 2 页">
        <mxGraphModel dx="1799" dy="813" grid="1" gridSize="10" guides="1" tooltips="1" connect="1" arrows="1" fold="1" page="1" pageScale="1" pageWidth="827" pageHeight="1169" math="0" shadow="0">
            <root>
                <mxCell id="0"/>
                <mxCell id="1" parent="0"/>
                <mxCell id="Rtr_iWn_1fDYTG1V7033-6" style="edgeStyle=none;html=1;exitX=1;exitY=0.5;exitDx=0;exitDy=0;entryX=0;entryY=0.5;entryDx=0;entryDy=0;" parent="1" source="y59qfnAlYW6rJv5I9W7V-1" target="bDiboKn8YcEVGIuOI4m3-1" edge="1">
                    <mxGeometry relative="1" as="geometry"/>
                </mxCell>
                <mxCell id="Rtr_iWn_1fDYTG1V7033-7" style="edgeStyle=none;html=1;exitX=1;exitY=0.5;exitDx=0;exitDy=0;entryX=0;entryY=0.5;entryDx=0;entryDy=0;" parent="1" source="y59qfnAlYW6rJv5I9W7V-1" target="bDiboKn8YcEVGIuOI4m3-2" edge="1">
                    <mxGeometry relative="1" as="geometry"/>
                </mxCell>
                <mxCell id="Rtr_iWn_1fDYTG1V7033-8" style="edgeStyle=none;html=1;exitX=0;exitY=0.5;exitDx=0;exitDy=0;entryX=1;entryY=0.5;entryDx=0;entryDy=0;" parent="1" source="y59qfnAlYW6rJv5I9W7V-1" target="bDiboKn8YcEVGIuOI4m3-3" edge="1">
                    <mxGeometry relative="1" as="geometry"/>
                </mxCell>
                <mxCell id="Rtr_iWn_1fDYTG1V7033-9" style="edgeStyle=none;html=1;exitX=0;exitY=0.5;exitDx=0;exitDy=0;entryX=1;entryY=0.5;entryDx=0;entryDy=0;" parent="1" source="y59qfnAlYW6rJv5I9W7V-1" target="bDiboKn8YcEVGIuOI4m3-4" edge="1">
                    <mxGeometry relative="1" as="geometry"/>
                </mxCell>
                <mxCell id="y59qfnAlYW6rJv5I9W7V-1" value="the recent advances&lt;div&gt;in LLM serving systems&lt;/div&gt;" style="rounded=0;whiteSpace=wrap;html=1;" parent="1" vertex="1">
                    <mxGeometry x="334" y="380" width="160" height="80" as="geometry"/>
                </mxCell>
                <mxCell id="Rtr_iWn_1fDYTG1V7033-10" style="edgeStyle=none;html=1;exitX=1;exitY=0.5;exitDx=0;exitDy=0;entryX=0;entryY=0.5;entryDx=0;entryDy=0;" parent="1" source="bDiboKn8YcEVGIuOI4m3-1" target="FCm8XVME_jxR7TC8NOsv-1" edge="1">
                    <mxGeometry relative="1" as="geometry"/>
                </mxCell>
                <mxCell id="Rtr_iWn_1fDYTG1V7033-11" style="edgeStyle=none;html=1;exitX=1;exitY=0.5;exitDx=0;exitDy=0;entryX=0;entryY=0.5;entryDx=0;entryDy=0;" parent="1" source="bDiboKn8YcEVGIuOI4m3-1" target="FCm8XVME_jxR7TC8NOsv-2" edge="1">
                    <mxGeometry relative="1" as="geometry"/>
                </mxCell>
                <mxCell id="Rtr_iWn_1fDYTG1V7033-12" style="edgeStyle=none;html=1;exitX=1;exitY=0.5;exitDx=0;exitDy=0;entryX=0;entryY=0.5;entryDx=0;entryDy=0;" parent="1" source="bDiboKn8YcEVGIuOI4m3-1" target="FCm8XVME_jxR7TC8NOsv-3" edge="1">
                    <mxGeometry relative="1" as="geometry"/>
                </mxCell>
                <mxCell id="bDiboKn8YcEVGIuOI4m3-1" value="memory management&lt;div&gt;and&lt;/div&gt;&lt;div&gt;caching&lt;/div&gt;" style="rounded=0;whiteSpace=wrap;html=1;" parent="1" vertex="1">
                    <mxGeometry x="610" y="215" width="160" height="80" as="geometry"/>
                </mxCell>
                <mxCell id="Rtr_iWn_1fDYTG1V7033-13" style="edgeStyle=none;html=1;exitX=1;exitY=0.5;exitDx=0;exitDy=0;entryX=0;entryY=0.5;entryDx=0;entryDy=0;" parent="1" source="bDiboKn8YcEVGIuOI4m3-2" target="-HDGGP3pCIZzoYZPKqDR-1" edge="1">
                    <mxGeometry relative="1" as="geometry"/>
                </mxCell>
                <mxCell id="Rtr_iWn_1fDYTG1V7033-14" style="edgeStyle=none;html=1;exitX=1;exitY=0.5;exitDx=0;exitDy=0;entryX=0;entryY=0.5;entryDx=0;entryDy=0;" parent="1" source="bDiboKn8YcEVGIuOI4m3-2" target="-HDGGP3pCIZzoYZPKqDR-2" edge="1">
                    <mxGeometry relative="1" as="geometry"/>
                </mxCell>
                <mxCell id="Rtr_iWn_1fDYTG1V7033-15" style="edgeStyle=none;html=1;exitX=1;exitY=0.5;exitDx=0;exitDy=0;entryX=0;entryY=0.5;entryDx=0;entryDy=0;" parent="1" source="bDiboKn8YcEVGIuOI4m3-2" target="-HDGGP3pCIZzoYZPKqDR-3" edge="1">
                    <mxGeometry relative="1" as="geometry"/>
                </mxCell>
                <mxCell id="bDiboKn8YcEVGIuOI4m3-2" value="Computation Task Scheduling" style="rounded=0;whiteSpace=wrap;html=1;" parent="1" vertex="1">
                    <mxGeometry x="610" y="545" width="160" height="80" as="geometry"/>
                </mxCell>
                <mxCell id="Rtr_iWn_1fDYTG1V7033-16" style="edgeStyle=none;html=1;exitX=0;exitY=0.5;exitDx=0;exitDy=0;entryX=1;entryY=0.5;entryDx=0;entryDy=0;" parent="1" source="bDiboKn8YcEVGIuOI4m3-3" target="HbnUphQSd3wHKKpEX1-b-1" edge="1">
                    <mxGeometry relative="1" as="geometry"/>
                </mxCell>
                <mxCell id="Rtr_iWn_1fDYTG1V7033-17" style="edgeStyle=none;html=1;exitX=0;exitY=0.5;exitDx=0;exitDy=0;entryX=1;entryY=0.5;entryDx=0;entryDy=0;" parent="1" source="bDiboKn8YcEVGIuOI4m3-3" target="HbnUphQSd3wHKKpEX1-b-2" edge="1">
                    <mxGeometry relative="1" as="geometry"/>
                </mxCell>
                <mxCell id="bDiboKn8YcEVGIuOI4m3-3" value="LLMs In Cloud" style="rounded=0;whiteSpace=wrap;html=1;" parent="1" vertex="1">
                    <mxGeometry x="60" y="215" width="160" height="80" as="geometry"/>
                </mxCell>
                <mxCell id="Rtr_iWn_1fDYTG1V7033-18" style="edgeStyle=none;html=1;exitX=0;exitY=0.5;exitDx=0;exitDy=0;entryX=1;entryY=0.5;entryDx=0;entryDy=0;" parent="1" source="bDiboKn8YcEVGIuOI4m3-4" target="Rtr_iWn_1fDYTG1V7033-1" edge="1">
                    <mxGeometry relative="1" as="geometry"/>
                </mxCell>
                <mxCell id="Rtr_iWn_1fDYTG1V7033-19" style="edgeStyle=none;html=1;exitX=0;exitY=0.5;exitDx=0;exitDy=0;entryX=1;entryY=0.5;entryDx=0;entryDy=0;" parent="1" source="bDiboKn8YcEVGIuOI4m3-4" target="Rtr_iWn_1fDYTG1V7033-2" edge="1">
                    <mxGeometry relative="1" as="geometry"/>
                </mxCell>
                <mxCell id="Rtr_iWn_1fDYTG1V7033-20" style="edgeStyle=none;html=1;exitX=0;exitY=0.5;exitDx=0;exitDy=0;entryX=1;entryY=0.5;entryDx=0;entryDy=0;" parent="1" source="bDiboKn8YcEVGIuOI4m3-4" target="Rtr_iWn_1fDYTG1V7033-3" edge="1">
                    <mxGeometry relative="1" as="geometry"/>
                </mxCell>
                <mxCell id="bDiboKn8YcEVGIuOI4m3-4" value="Emerging Research Fields" style="rounded=0;whiteSpace=wrap;html=1;" parent="1" vertex="1">
                    <mxGeometry x="60" y="545" width="160" height="80" as="geometry"/>
                </mxCell>
                <mxCell id="FCm8XVME_jxR7TC8NOsv-1" value="Efficient Management of KV Cache" style="rounded=0;whiteSpace=wrap;html=1;" parent="1" vertex="1">
                    <mxGeometry x="850" y="115" width="160" height="80" as="geometry"/>
                </mxCell>
                <mxCell id="FCm8XVME_jxR7TC8NOsv-2" value="Support for Long-Context Applications" style="rounded=0;whiteSpace=wrap;html=1;" parent="1" vertex="1">
                    <mxGeometry x="850" y="215" width="160" height="80" as="geometry"/>
                </mxCell>
                <mxCell id="FCm8XVME_jxR7TC8NOsv-3" value="Compression of KV Cache" style="rounded=0;whiteSpace=wrap;html=1;" parent="1" vertex="1">
                    <mxGeometry x="850" y="315" width="160" height="80" as="geometry"/>
                </mxCell>
                <mxCell id="-HDGGP3pCIZzoYZPKqDR-1" value="Request Batching" style="rounded=0;whiteSpace=wrap;html=1;" parent="1" vertex="1">
                    <mxGeometry x="850" y="445" width="160" height="80" as="geometry"/>
                </mxCell>
                <mxCell id="-HDGGP3pCIZzoYZPKqDR-2" value="Disaggregated Inference" style="rounded=0;whiteSpace=wrap;html=1;" parent="1" vertex="1">
                    <mxGeometry x="850" y="545" width="160" height="80" as="geometry"/>
                </mxCell>
                <mxCell id="-HDGGP3pCIZzoYZPKqDR-3" value="Model Parallelism" style="rounded=0;whiteSpace=wrap;html=1;" parent="1" vertex="1">
                    <mxGeometry x="850" y="645" width="160" height="80" as="geometry"/>
                </mxCell>
                <mxCell id="MFrZZjM1vPjGAre12jnA-1" value="Orca" style="rounded=0;whiteSpace=wrap;html=1;" parent="1" vertex="1">
                    <mxGeometry x="1040" y="455" width="140" height="60" as="geometry"/>
                </mxCell>
                <mxCell id="MFrZZjM1vPjGAre12jnA-2" value="Sarathi-Serve" style="rounded=0;whiteSpace=wrap;html=1;" parent="1" vertex="1">
                    <mxGeometry x="1210" y="455" width="140" height="60" as="geometry"/>
                </mxCell>
                <mxCell id="MFrZZjM1vPjGAre12jnA-3" value="Infinite-LLM, Memserve" style="rounded=0;whiteSpace=wrap;html=1;" parent="1" vertex="1">
                    <mxGeometry x="1040" y="225" width="140" height="60" as="geometry"/>
                </mxCell>
                <mxCell id="MFrZZjM1vPjGAre12jnA-4" value="Paged attention" style="rounded=0;whiteSpace=wrap;html=1;" parent="1" vertex="1">
                    <mxGeometry x="1040" y="125" width="140" height="60" as="geometry"/>
                </mxCell>
                <mxCell id="8NTViwEDNKhji2CCI1jS-2" value="P/D disaggregated" style="rounded=0;whiteSpace=wrap;html=1;" parent="1" vertex="1">
                    <mxGeometry x="1040" y="555" width="140" height="60" as="geometry"/>
                </mxCell>
                <mxCell id="8NTViwEDNKhji2CCI1jS-3" value="Tensor Parallelism&lt;br&gt;Pipeline Parallelism" style="rounded=0;whiteSpace=wrap;html=1;" parent="1" vertex="1">
                    <mxGeometry x="1040" y="655" width="140" height="60" as="geometry"/>
                </mxCell>
                <mxCell id="HbnUphQSd3wHKKpEX1-b-1" value="Cloud Deployment Cost" style="rounded=0;whiteSpace=wrap;html=1;" parent="1" vertex="1">
                    <mxGeometry x="-170" y="160" width="160" height="80" as="geometry"/>
                </mxCell>
                <mxCell id="HbnUphQSd3wHKKpEX1-b-2" value="Cloud Efficiency" style="rounded=0;whiteSpace=wrap;html=1;" parent="1" vertex="1">
                    <mxGeometry x="-170" y="270" width="160" height="80" as="geometry"/>
                </mxCell>
                <mxCell id="aL8eY23TUDfEfQMgCGTl-1" value="Melange" style="rounded=0;whiteSpace=wrap;html=1;" parent="1" vertex="1">
                    <mxGeometry x="-510" y="170" width="140" height="60" as="geometry"/>
                </mxCell>
                <mxCell id="aL8eY23TUDfEfQMgCGTl-2" value="Llumnix" style="rounded=0;whiteSpace=wrap;html=1;" parent="1" vertex="1">
                    <mxGeometry x="-340" y="170" width="140" height="60" as="geometry"/>
                </mxCell>
                <mxCell id="Rtr_iWn_1fDYTG1V7033-1" value="RAG" style="rounded=0;whiteSpace=wrap;html=1;" parent="1" vertex="1">
                    <mxGeometry x="-170" y="435" width="160" height="80" as="geometry"/>
                </mxCell>
                <mxCell id="Rtr_iWn_1fDYTG1V7033-2" value="MoE" style="rounded=0;whiteSpace=wrap;html=1;" parent="1" vertex="1">
                    <mxGeometry x="-170" y="545" width="160" height="80" as="geometry"/>
                </mxCell>
                <mxCell id="Rtr_iWn_1fDYTG1V7033-3" value="Miscellaneous Fields" style="rounded=0;whiteSpace=wrap;html=1;" parent="1" vertex="1">
                    <mxGeometry x="-170" y="655" width="160" height="80" as="geometry"/>
                </mxCell>
                <mxCell id="Rtr_iWn_1fDYTG1V7033-5" value="Multi-agents" style="rounded=0;whiteSpace=wrap;html=1;" parent="1" vertex="1">
                    <mxGeometry x="-340" y="665" width="140" height="60" as="geometry"/>
                </mxCell>
            </root>
        </mxGraphModel>
    </diagram>
</mxfile>